<?xml version="1.0" encoding="UTF-8" standalone="no"?>
<svg
        xmlns:dc="http://purl.org/dc/elements/1.1/"
        xmlns:cc="http://creativecommons.org/ns#"
        xmlns:rdf="http://www.w3.org/1999/02/22-rdf-syntax-ns#"
        xmlns="http://www.w3.org/2000/svg"
        id="svg8"
        version="1.1"
        viewBox="0 0 132.29167 132.29167"
        height="500"
        width="500">
    <defs
            id="defs2"/>
    <metadata
            id="metadata5">
        <rdf:RDF>
            <cc:Work
                    rdf:about="">
                <dc:format>image/svg+xml</dc:format>
                <dc:type
                        rdf:resource="http://purl.org/dc/dcmitype/StillImage"/>
                <dc:title></dc:title>
            </cc:Work>
        </rdf:RDF>
    </metadata>
    <g
            transform="translate(0,-164.70834)"
            id="layer1">
        <g
                transform="matrix(0.14634273,0,0,0.14634273,27.760778,210.80883)"
                id="g4585">
            <g
                    id="g4526">
                <g
                        id="g4524">
                    <g
                            id="g4522">
                        <path
                                d="m 230.792,354.313 -6.729,60.51 c -0.333,3.01 0.635,6.031 2.656,8.292 2.021,2.26 4.917,3.552 7.948,3.552 h 42.667 c 3.031,0 5.927,-1.292 7.948,-3.552 2.021,-2.26 2.99,-5.281 2.656,-8.292 l -6.729,-60.51 c 10.927,-7.948 17.458,-20.521 17.458,-34.313 0,-23.531 -19.135,-42.667 -42.667,-42.667 -23.532,0 -42.667,19.136 -42.667,42.667 0,13.792 6.532,26.365 17.459,34.313 z M 256,298.667 c 11.76,0 21.333,9.573 21.333,21.333 0,8.177 -4.646,15.5 -12.125,19.125 -4.073,1.979 -6.458,6.292 -5.958,10.781 l 6.167,55.427 h -18.833 l 6.167,-55.427 c 0.5,-4.49 -1.885,-8.802 -5.958,-10.781 C 239.314,335.5 234.668,328.177 234.668,320 234.667,308.24 244.24,298.667 256,298.667 Z"
                                id="path4518"/>

                        <path
                                d="m 437.333,192 h -32 V 149.333 C 405.333,66.99 338.344,0 256,0 173.656,0 106.667,66.99 106.667,149.333 V 192 h -32 C 68.771,192 64,196.771 64,202.667 V 469.334 C 64,492.865 83.135,512 106.667,512 H 405.334 C 428.865,512 448,492.865 448,469.333 V 202.667 C 448,196.771 443.229,192 437.333,192 Z M 128,149.333 c 0,-70.583 57.417,-128 128,-128 70.583,0 128,57.417 128,128 V 192 H 362.667 V 149.333 C 362.667,90.52 314.813,42.666 256,42.666 c -58.813,0 -106.667,47.855 -106.667,106.667 V 192 H 128 Z m 213.333,0 V 192 H 170.667 V 149.333 C 170.667,102.281 208.948,64 256,64 c 47.052,0 85.333,38.281 85.333,85.333 z m 85.334,320 c 0,11.76 -9.573,21.333 -21.333,21.333 H 106.667 c -11.76,0 -21.333,-9.573 -21.333,-21.333 v -256 h 341.333 z"
                                id="path4520"/>

                    </g>

                </g>

            </g>
            <g
                    id="g4528">
            </g>
            <g
                    id="g4530">
            </g>
            <g
                    id="g4532">
            </g>
            <g
                    id="g4534">
            </g>
            <g
                    id="g4536">
            </g>
            <g
                    id="g4538">
            </g>
            <g
                    id="g4540">
            </g>
            <g
                    id="g4542">
            </g>
            <g
                    id="g4544">
            </g>
            <g
                    id="g4546">
            </g>
            <g
                    id="g4548">
            </g>
            <g
                    id="g4550">
            </g>
            <g
                    id="g4552">
            </g>
            <g
                    id="g4554">
            </g>
            <g
                    id="g4556">
            </g>
        </g>
        <g
                transform="matrix(0.19200182,-0.05853417,0.05853417,0.19200182,2.09176,187.8691)"
                id="g4666">
            <g
                    id="g4591">
                <g
                        id="g4589">
                    <path
                            d="m 510.964,340.783 -56.069,-96.182 c 9.565,-11.08 32.057,-41.754 27.349,-80.69 -4.217,-34.875 -28.997,-66.523 -73.661,-94.144 l 6.951,-17.956 c 1.438,-3.714 -0.231,-7.907 -3.826,-9.619 L 362.642,18.841 c -3.088,-1.47 -6.774,-0.699 -9.015,1.88 l -13.81,15.891 C 305.304,23.933 273.393,18.404 244.912,20.222 220.616,21.767 198.756,28.595 179.939,40.515 154.5,56.631 141.727,77.534 137.242,86.183 L 6.438,106.562 c -3.177,0.495 -5.7,2.934 -6.303,6.093 -0.603,3.159 0.845,6.356 3.617,7.985 36.434,21.426 72.069,36.836 105.916,45.803 23.607,6.254 46.41,9.409 67.939,9.409 3.362,0 6.695,-0.077 9.993,-0.231 32.561,-1.522 53.286,-10.16 61.516,-14.319 l 92.222,48.513 c 1.755,7.946 7.316,26.477 23.885,48.934 35.418,48.005 93.784,77.068 136.51,92.997 0.867,0.324 1.766,0.48 2.656,0.48 2.202,0 4.348,-0.957 5.822,-2.708 2.071,-2.46 2.373,-5.956 0.753,-8.735 z M 185.651,160.473 C 129.493,162.737 72.98,140.733 30.564,118.206 l 110.38,-17.198 91.238,50.957 c -9.933,3.579 -25.554,7.663 -46.531,8.508 z m 75.44,-10.068 30.652,-35.271 c 2.757,-3.172 2.42,-7.978 -0.752,-10.736 -3.171,-2.756 -7.977,-2.421 -10.736,0.753 l -32.899,37.856 -94.863,-52.981 c 4.88,-8.428 15.891,-24.175 35.593,-36.656 16.634,-10.537 36.078,-16.58 57.794,-17.962 24.876,-1.582 52.833,2.982 83.221,13.535 l -48.846,56.208 c 3.24051,-3.77391 8.02814,13.69333 11.488,9.983 L 361.324,35.068 398.793,52.902 344.13,194.088 Z M 402.99,84.212 c 38.952,24.629 60.517,51.981 64.129,81.392 4.016,32.708 -15.715,59.58 -23.702,68.955 l -85.455,-34.042 z m -24.783,166.494 c -9.858,-13.153 -15.476,-24.785 -18.633,-33.164 l 80.662,32.133 46.409,79.61 C 449.544,313.243 406.179,288.027 378.207,250.706 Z"
                            id="path4587"/>

                </g>

            </g>
            <g
                    id="g4597">
                <g
                        id="g4595">

                </g>

            </g>
            <g
                    id="g4603">
                <g
                        id="g4601">

                </g>

            </g>
            <g
                    id="g4605">
            </g>
            <g
                    id="g4607">
            </g>
            <g
                    id="g4609">
            </g>
            <g
                    id="g4611">
            </g>
            <g
                    id="g4613">
            </g>
            <g
                    id="g4615">
            </g>
            <g
                    id="g4617">
            </g>
            <g
                    id="g4619">
            </g>
            <g
                    id="g4621">
            </g>
            <g
                    id="g4623">
            </g>
            <g
                    id="g4625">
            </g>
            <g
                    id="g4627">
            </g>
            <g
                    id="g4629">
            </g>
            <g
                    id="g4631">
            </g>
            <g
                    id="g4633">
            </g>
        </g>
    </g>
</svg>
